<?xml version="1.0" encoding="UTF-8"?>
<svg id="Layer_1" data-name="Layer 1" xmlns="http://www.w3.org/2000/svg" viewBox="0 0 160 160">
  <defs>
    <style>
      .cls-1 {
        fill: #231f20;
      }
    </style>
  </defs>
  <path class="cls-1" d="M61.05,90.89v-18.75h-.09l-7.47,18.75h-1.95l-7.5-18.75h-.06v18.75h-3.24v-22.2h5.1l6.66,17.01,6.69-17.01h5.1v22.2h-3.24Z"/>
  <path class="cls-1" d="M68.53,72.35v-3.66h3.12v3.66h-3.12Zm0,18.54v-16.62h3.12v16.62h-3.12Z"/>
  <path class="cls-1" d="M75.81,90.89v-22.2h3.12v22.2h-3.12Z"/>
  <path class="cls-1" d="M85.78,85.28c1.42,2.48,3.99,3.61,6.45,2.95,1.88-.51,3.38-1.97,3.85-3.93l3.01-.82c-.35,3.64-2.78,6.6-6.23,7.53-4.52,1.22-9.25-1.79-10.41-6.07-1.37-5.07,1.5-9.63,5.75-10.79,4.72-1.28,9.3,1.4,10.54,6,.13,.49,.26,.96,.32,1.53l-13.29,3.6Zm9.74-5.12c-.97-2.66-3.9-3.98-6.48-3.28s-4.4,3.27-3.88,6.09l10.37-2.81Z"/>
  <path class="cls-1" d="M108.75,78.68c-.15-1.2-.84-2.01-2.13-2.01-1.2,0-1.95,.81-1.95,1.77,0,1.41,1.44,1.83,3.09,2.34,2.34,.72,4.5,2.13,4.5,5.22s-2.34,5.31-5.58,5.31c-3,0-5.88-2.04-5.88-5.88h3.12c.15,2.01,1.17,3.03,2.82,3.03,1.44,0,2.4-.93,2.4-2.28,0-1.14-.87-1.89-2.82-2.52-4.08-1.29-4.77-3.06-4.77-4.95,0-2.94,2.49-4.89,5.22-4.89s5.01,1.92,5.1,4.86h-3.12Z"/>
  <path class="cls-1" d="M116.13,90.89v-3.66h3.12v3.66h-3.12Z"/>
</svg>